<?xml version="1.0" encoding="UTF-8"?>
<!DOCTYPE svg PUBLIC "-//W3C//DTD SVG 1.1//EN" "http://www.w3.org/Graphics/SVG/1.1/DTD/svg11.dtd">
<!-- Creator: CorelDRAW 2021 (64-Bit) -->
<svg xmlns="http://www.w3.org/2000/svg" xml:space="preserve" width="1.54595in" height="0.478339in" version="1.1" style="shape-rendering:geometricPrecision; text-rendering:geometricPrecision; image-rendering:optimizeQuality; fill-rule:evenodd; clip-rule:evenodd"
viewBox="0 0 162.58 50.3"
 xmlns:xlink="http://www.w3.org/1999/xlink"
 xmlns:xodm="http://www.corel.com/coreldraw/odm/2003">
 <defs>
  <style type="text/css">
   <![CDATA[
    .fil1 {fill:#1C1C1C;fill-rule:nonzero}
    .fil0 {fill:url(#id0)}
   ]]>
  </style>
  <linearGradient id="id0" gradientUnits="userSpaceOnUse" x1="21.55" y1="-4.82" x2="21.55" y2="70.14">
   <stop offset="0" style="stop-opacity:1; stop-color:yellow"/>
   <stop offset="1" style="stop-opacity:1; stop-color:red"/>
  </linearGradient>
 </defs>
 <g id="Layer_x0020_1">
  <metadata id="CorelCorpID_0Corel-Layer"/>
  <g id="_1828513574016">
   <path class="fil0" d="M-0 5.47l4.97 0 9.02 0 1.43 0c1.2,0 2.39,0.1 3.54,0.28 10.66,1.71 18.88,11.01 18.88,22.14 0,5.79 -2.22,11.08 -5.85,15.07l3.87 3.87c4.62,-4.98 7.46,-11.64 7.46,-18.93 0,-14.14 -10.67,-25.91 -24.35,-27.66 -1.16,-0.15 -2.34,-0.22 -3.53,-0.22l-1.43 0 -9.02 0 -4.97 0 0 5.47zm13.98 15.55c-2.6,0.96 -4.46,3.46 -4.46,6.4 0,2.94 1.86,5.44 4.46,6.4l0 6.72 0 5.06 -9.02 0 0 -5.06 0 -25.29 9.02 0 1.33 0c1.26,0 2.49,0.19 3.64,0.54 5.19,1.57 9,6.42 9,12.11 0,3.07 -1.11,5.9 -2.95,8.1l3.77 3.77c2.85,-3.15 4.6,-7.31 4.6,-11.87 0,-8.62 -6.24,-15.85 -14.42,-17.39 -1.06,-0.2 -2.16,-0.31 -3.28,-0.31l-1.69 0 -9.02 0 -4.97 0 0 5.06 0 25.29 0 5.06 0 4.72 4.97 0 9.02 0 1.43 0c1.2,0 2.39,-0.1 3.54,-0.28l0 -4.74 0 -5.29 0 -6.28c2.46,-1.03 4.2,-3.46 4.2,-6.29 0,-2.84 -1.73,-5.27 -4.2,-6.29 -0.81,-0.34 -1.69,-0.52 -2.62,-0.52 -0.83,0 -1.62,0.15 -2.35,0.42z"/>
   <path class="fil1" d="M71.8 11.62c3.73,0 6.51,0.9 8.36,2.7 1.85,1.8 2.77,4.24 2.77,7.33 0,3.06 -0.92,5.49 -2.77,7.29 -1.85,1.8 -4.64,2.7 -8.36,2.7l-5.55 0 0 9.99 -6.26 0 0 -30.01 11.8 0zm-0.21 14.45c1.67,0 2.9,-0.39 3.71,-1.18 0.81,-0.79 1.21,-1.86 1.21,-3.24 0,-1.4 -0.4,-2.49 -1.21,-3.28 -0.81,-0.79 -2.04,-1.18 -3.71,-1.18l-5.34 0 0 8.87 5.34 0zm23.64 15.99c-1.92,0 -3.7,-0.41 -5.36,-1.24 -1.65,-0.83 -2.99,-2.12 -4,-3.86 -1.01,-1.74 -1.52,-3.9 -1.52,-6.47 0,-2.57 0.51,-4.73 1.52,-6.47 1.01,-1.74 2.35,-3.03 4,-3.86 1.65,-0.83 3.44,-1.24 5.36,-1.24 1.92,0 3.7,0.41 5.36,1.24 1.65,0.83 2.99,2.11 4,3.86 1.01,1.74 1.52,3.9 1.52,6.47 0,2.57 -0.51,4.73 -1.52,6.47 -1.01,1.74 -2.35,3.03 -4,3.86 -1.65,0.83 -3.44,1.24 -5.36,1.24zm0 -5.19c1.56,0 2.81,-0.54 3.75,-1.61 0.94,-1.07 1.42,-2.67 1.42,-4.78 0,-2.12 -0.47,-3.71 -1.42,-4.78 -0.95,-1.07 -2.2,-1.61 -3.75,-1.61 -1.56,0 -2.81,0.54 -3.75,1.61 -0.95,1.07 -1.42,2.67 -1.42,4.78 0,2.11 0.47,3.71 1.42,4.78 0.94,1.07 2.2,1.61 3.75,1.61zm35.32 -25.25l0 30.01 -6.09 0 0 -3.22c-0.42,1.03 -1.2,1.89 -2.36,2.59 -1.15,0.7 -2.51,1.05 -4.07,1.05 -1.61,0 -3.14,-0.41 -4.59,-1.24 -1.45,-0.83 -2.62,-2.11 -3.52,-3.84 -0.9,-1.73 -1.36,-3.89 -1.36,-6.49 0,-2.6 0.45,-4.77 1.36,-6.5 0.9,-1.73 2.08,-3.01 3.52,-3.84 1.44,-0.83 2.97,-1.24 4.59,-1.24 1.56,0 2.91,0.35 4.07,1.05 1.15,0.7 1.94,1.56 2.36,2.59l0 -10.93 6.09 0zm-11.01 25.25c1.45,0 2.67,-0.55 3.67,-1.65 1,-1.1 1.5,-2.68 1.5,-4.74 0,-2.06 -0.5,-3.64 -1.5,-4.74 -1,-1.1 -2.22,-1.65 -3.67,-1.65 -1.47,0 -2.71,0.55 -3.71,1.65 -1,1.1 -1.5,2.68 -1.5,4.74 0,2.06 0.5,3.64 1.5,4.74 1,1.1 2.24,1.65 3.71,1.65zm36.49 4.76l-1.88 -5.62 -12.3 0 -1.88 5.62 -6.55 0 10.55 -30.01 8.05 0 10.55 30.01 -6.55 0zm-12.59 -10.38l9.13 0 -4.38 -13.08 -0.38 0 -4.38 13.08z"/>
  </g>
 </g>
</svg>
